<?xml version="1.0" standalone="no"?><!-- Generator: Gravit.io --><svg xmlns="http://www.w3.org/2000/svg" xmlns:xlink="http://www.w3.org/1999/xlink" style="isolation:isolate" viewBox="0 0 500 500" width="500" height="500"><defs><clipPath id="_clipPath_hRWqsHeX3jkdap7CaRD4V543yDA87Lxz"><rect width="500" height="500"/></clipPath></defs><g clip-path="url(#_clipPath_hRWqsHeX3jkdap7CaRD4V543yDA87Lxz)"><rect width="500" height="500" style="fill:rgb(0,0,0)" fill-opacity="0"/><g><path d=" M 9.801 20 L 194.541 416.176 C 210.966 451.401 255.858 480 294.725 480 L 356.397 480 L 171.657 83.824 C 155.231 48.599 110.34 20 71.473 20 L 9.801 20 Z " fill="rgb(0,0,0)"/><path d=" M 356.397 20 L 490.199 20 L 490.199 153.803 L 356.397 153.803 L 356.397 20 Z  M 389.601 135.903 L 389.601 130.848 L 389.601 130.848 Q 389.601 122.845 393.111 116.456 L 393.111 116.456 L 393.111 116.456 Q 396.621 110.068 401.746 105.294 L 401.746 105.294 L 401.746 105.294 Q 406.871 100.521 415.154 94.483 L 415.154 94.483 L 415.154 94.483 Q 422.315 89.007 426.457 85.357 L 426.457 85.357 L 426.457 85.357 Q 430.599 81.706 433.407 77.354 L 433.407 77.354 L 433.407 77.354 Q 436.917 71.878 436.917 64.998 L 436.917 64.998 L 436.917 64.998 Q 436.917 60.505 433.618 57.065 L 433.618 57.065 L 433.618 57.065 Q 430.318 53.625 424.14 53.625 L 424.14 53.625 L 424.14 53.625 Q 410.24 53.625 410.24 66.964 L 410.24 66.964 L 410.24 72.72 L 391.145 72.72 L 391.145 72.72 Q 391.005 72.299 390.794 70.755 L 390.794 70.755 L 390.794 70.755 Q 390.584 69.21 390.584 67.104 L 390.584 67.104 L 390.584 67.104 Q 390.584 52.502 400.342 45.201 L 400.342 45.201 L 400.342 45.201 Q 410.1 37.9 424.983 37.9 L 424.983 37.9 L 424.983 37.9 Q 438.04 37.9 445.061 42.955 L 445.061 42.955 L 445.061 42.955 Q 452.081 48.009 454.257 54.327 L 454.257 54.327 L 454.257 54.327 Q 456.433 60.646 456.433 66.121 L 456.433 66.121 L 456.433 66.121 Q 456.433 75.809 452.081 83.321 L 452.081 83.321 L 452.081 83.321 Q 447.728 90.833 441.761 95.957 L 441.761 95.957 L 441.761 95.957 Q 435.794 101.082 426.948 107.12 L 426.948 107.12 L 426.948 107.12 Q 420.209 111.753 416.839 114.701 L 416.839 114.701 L 416.839 114.701 Q 414.452 116.807 413.329 118.773 L 413.329 118.773 L 456.995 118.773 L 456.995 135.903 L 389.601 135.903 Z " fill-rule="evenodd" fill="rgb(0,0,0)"/></g></g></svg>