<?xml version="1.0" standalone="no"?><!-- Generator: Gravit.io -->
<svg xmlns="http://www.w3.org/2000/svg" 
  xmlns:xlink="http://www.w3.org/1999/xlink" style="isolation:isolate" viewBox="0 0 500 500" width="500" height="500">
  <defs>
    <clipPath id="_clipPath_G3aF5GLUi4455Pmln9xQDbAL4GhekFZk">
      <rect width="500" height="500"/>
    </clipPath>
  </defs>
  <g clip-path="url(#_clipPath_G3aF5GLUi4455Pmln9xQDbAL4GhekFZk)">
    <clipPath id="_clipPath_xpXuJ5b96JWwTXlzJOhffgzuuOX4hSDm">
      <rect x="0" y="0" width="500" height="500" transform="matrix(1,0,0,1,0,0)" fill="rgb(255,255,255)"/>
    </clipPath>
    <g clip-path="url(#_clipPath_xpXuJ5b96JWwTXlzJOhffgzuuOX4hSDm)">
      <g>
        <rect x="0" y="0" width="500" height="500" transform="matrix(1,0,0,1,0,0)" fill="none"/>
        <g>
          <path d=" M 11.901 20 L 196.641 416.176 C 213.066 451.401 257.957 480 296.825 480 L 358.496 480 L 173.757 83.824 C 157.331 48.599 112.44 20 73.573 20 L 11.901 20 Z " fill="rgb(0,0,0)"/>
          <path d=" M 333.1 20 L 488.1 20 L 488.1 175.001 L 333.1 175.001 L 333.1 20 Z  M 371.564 154.265 L 371.564 148.409 L 371.564 148.409 Q 371.564 139.139 375.63 131.737 L 375.63 131.737 L 375.63 131.737 Q 379.696 124.337 385.633 118.807 L 385.633 118.807 L 385.633 118.807 Q 391.57 113.278 401.165 106.283 L 401.165 106.283 L 401.165 106.283 Q 409.461 99.94 414.259 95.711 L 414.259 95.711 L 414.259 95.711 Q 419.057 91.482 422.31 86.44 L 422.31 86.44 L 422.31 86.44 Q 426.376 80.097 426.376 72.127 L 426.376 72.127 L 426.376 72.127 Q 426.376 66.922 422.554 62.937 L 422.554 62.937 L 422.554 62.937 Q 418.732 58.952 411.575 58.952 L 411.575 58.952 L 411.575 58.952 Q 395.473 58.952 395.473 74.404 L 395.473 74.404 L 395.473 81.072 L 373.353 81.072 L 373.353 81.072 Q 373.19 80.585 372.946 78.796 L 372.946 78.796 L 372.946 78.796 Q 372.703 77.006 372.703 74.567 L 372.703 74.567 L 372.703 74.567 Q 372.703 57.651 384.007 49.194 L 384.007 49.194 L 384.007 49.194 Q 395.311 40.736 412.551 40.736 L 412.551 40.736 L 412.551 40.736 Q 427.677 40.736 435.81 46.592 L 435.81 46.592 L 435.81 46.592 Q 443.943 52.446 446.463 59.765 L 446.463 59.765 L 446.463 59.765 Q 448.984 67.085 448.984 73.428 L 448.984 73.428 L 448.984 73.428 Q 448.984 84.651 443.943 93.353 L 443.943 93.353 L 443.943 93.353 Q 438.9 102.055 431.988 107.991 L 431.988 107.991 L 431.988 107.991 Q 425.075 113.928 414.828 120.922 L 414.828 120.922 L 414.828 120.922 Q 407.021 126.289 403.117 129.704 L 403.117 129.704 L 403.117 129.704 Q 400.352 132.144 399.051 134.421 L 399.051 134.421 L 449.635 134.421 L 449.635 154.265 L 371.564 154.265 Z " fill-rule="evenodd" fill="rgb(0,0,0)"/>
        </g>
      </g>
    </g>
  </g>
</svg>
